<?xml version="1.0" encoding="UTF-8" standalone="no"?> <!-- Created with Vectornator for iOS (http://vectornator.io/) --><!DOCTYPE svg PUBLIC "-//W3C//DTD SVG 1.1//EN" "http://www.w3.org/Graphics/SVG/1.1/DTD/svg11.dtd">
<svg height="100%" style="fill-rule:evenodd;clip-rule:evenodd;stroke-linecap:round;stroke-linejoin:round;" xmlns:xlink="http://www.w3.org/1999/xlink" xmlns="http://www.w3.org/2000/svg" xml:space="preserve" width="100%" xmlns:vectornator="http://vectornator.io" version="1.1" viewBox="0 0 415.57 143.66">
<metadata>
<vectornator:setting key="GridSpacing" value="36"/>
<vectornator:setting key="SnapToPoints" value="1"/>
<vectornator:setting key="OutlineMode" value="0"/>
<vectornator:setting key="RulersVisible" value="1"/>
<vectornator:setting key="CMYKEnabledKey" value="0"/>
<vectornator:setting key="SnapToEdges" value="1"/>
<vectornator:setting key="GuidesVisible" value="1"/>
<vectornator:setting key="SnapToGuides" value="1"/>
<vectornator:setting key="Units" value="Points"/>
<vectornator:setting key="DynamicGuides" value="1"/>
<vectornator:setting key="IsolateActiveLayer" value="0"/>
<vectornator:setting key="SnapToGrid" value="1"/>
</metadata>
<defs/>
<g id="Ebene 1" vectornator:layerName="Ebene 1">
<path d="M289.998+0C289.342+0.0609975+289.404+0.968758+289.404+0.968758C289.404+0.968758+289.351+1.194+289.31+1.25001C288.538+1.07101+288.47+1.89276+288.435+2.21877C288.398+2.54677+288.498+3.31253+288.498+3.31253L288.56+4.78129C288.56+4.78129+288.489+6.0098+288.529+6.71881C288.564+7.42881+288.467+8.09382+288.467+8.09382C288.467+8.09382+288.326+9.34783+288.404+9.71883C288.482+10.0828+288.441+10.3668+288.404+11.0938C288.361+11.8279+288.226+11.4846+288.092+11.0626C287.994+10.4226+287.779+9.59383+287.779+9.59383C287.779+9.59383+287.58+8.91558+287.404+8.18757C287.404+7.85357+287.253+7.08306+287.154+6.75006C287.06+6.42906+286.904+5.7188+286.904+5.7188C286.904+5.7188+286.874+5.26679+286.779+5.09379C286.804+4.9638+286.554+4.77079+286.154+4.84379C285.369+5.10879+285.685+7.12506+285.685+7.12506L285.904+8.56257C285.904+8.56257+286.016+9.89233+286.092+10.2813C286.164+10.6633+286.146+11.0191+286.185+11.5001C285.957+11.5001+285.822+11.6184+285.654+11.9064C285.15+12.5174+285.822+13.7456+285.904+13.9376C285.978+14.1276+286.03+14.3454+285.967+14.5314C285.91+14.7284+285.967+15.1251+285.967+15.1251L285.779+15.9689L285.685+17.6252C285.685+17.6252+285.671+18.6269+285.748+19.7189C285.789+20.4219+286.019+21.6369+286.185+22.0939C286.363+22.5619+286.615+22.9087+286.748+23.0627C286.88+23.2167+286.842+23.2759+286.842+23.469C286.842+23.66+286.867+23.8825+286.967+24.1565C287.063+24.4255+287.092+25.1565+287.092+25.1565L287.467+30.5003C287.467+30.5003+287.935+34.8373+288.092+36.6253C288.246+38.4153+288.967+42.3129+288.967+42.3129C288.967+42.3129+289.73+46.7077+289.904+47.7817C290.08+48.8587+290.873+51.6567+290.873+51.6567C290.873+51.6567+291.425+53.4685+291.498+53.8755C291.576+54.2765+292.014+55.3815+292.092+55.7505C292.17+56.1075+292.25+56.5747+292.467+58.4068C292.676+60.2328+294.123+63.6255+294.123+63.6255L295.436+67.9068L295.998+69.9694L295.717+70.9381L295.498+71.8444L295.248+72.4381L295.092+72.9694C295.092+72.9694+295.017+73.3099+294.904+73.6569C294.728+73.9389+294.998+74.4069+294.998+74.4069C294.998+74.4069+295.104+74.5956+295.123+74.7506C295.141+74.9046+295.873+75.5319+295.873+75.5319C295.873+75.5319+296.572+76.2669+296.779+76.4069C296.992+76.5309+297.186+76.8757+297.186+76.8757L297.686+77.6257C297.685+77.6257+298.825+79.1789+299.061+79.4069C299.295+79.6339+299.467+80.1882+299.467+80.1882C299.467+80.1882+299.972+81.3439+300.373+82.282C300.648+82.591+300.686+83.032+300.686+83.032C300.686+83.032+300.866+84.111+300.998+84.532C301.137+84.964+301.123+85.1882+301.123+85.1882C301.123+85.1882+301.255+85.9382+301.373+86.3132C301.492+86.7042+301.717+87.2507+301.717+87.2507C301.717+87.2507+301.777+87.6215+301.873+87.8445C301.972+88.0485+301.904+88.2508+301.904+88.2508C301.904+88.2508+301.886+89.2183+301.904+89.5633C301.923+89.9143+301.838+90.2863+301.779+90.6883C301.717+91.0943+301.686+92.1168+301.686+92.5008C301.686+92.8818+301.854+94.0163+301.936+94.1883C302.012+94.3623+301.923+95.3176+301.904+96.2196C301.695+96.6326+302.404+98.6883+302.404+98.6883C302.404+98.6883+302.428+98.9346+302.373+99.7196C302.139+100.667+302.279+102.782+302.279+102.782L302.217+104.532C302.217+104.532+302.27+106.267+302.311+106.501C302.352+106.729+302.154+108.501+302.154+108.501L301.873+111.626C301.873+111.626+301.643+113.266+301.623+113.845C301.602+114.427+301.686+115.938+301.686+115.938C301.686+115.938+301.705+116.513+301.748+116.626C301.787+116.749+301.836+117.135+301.811+117.282C301.797+117.431+301.561+118.282+301.561+118.282L301.092+119.626C301.092+119.626+300.395+121.808+300.248+122.189C300.086+122.572+299.942+123.279+299.998+123.532C300.055+123.787+299.967+124.345+299.967+124.345L299.873+126.157C299.873+126.157+300.049+128.606+300.279+128.97C300.512+129.328+300.342+129.564+300.342+129.564C300.342+129.564+300.212+130.374+300.154+131.095C300.091+131.836+300.445+132.918+300.654+133.189C300.871+133.461+300.717+133.782+300.717+133.782C300.717+133.782+300.799+133.892+300.842+134.189C300.799+134.362+300.933+134.509+301.029+134.595C301.123+134.669+301.03+134.977+300.936+135.064C300.45+135.453+300.592+135.626+300.592+135.626L300.498+135.814L300.279+136.22L300.123+136.751L300.029+137.22C300.029+137.22+299.983+137.491+299.873+137.564C299.372+137.756+299.467+138.126+299.467+138.126C299.467+138.126+299.488+138.317+299.373+138.532C299.255+138.569+299.046+138.892+298.936+139.064C298.813+139.233+298.789+139.38+298.748+139.689C298.711+139.996+298.748+140.251+298.748+140.251C298.748+140.251+298.634+140.779+298.623+141.001C298.601+141.236+298.432+141.705+298.311+141.939C298.2+142.169+297.998+143.22+297.998+143.22C297.998+143.22+297.982+143.472+297.967+143.657L336.311+143.657C336.126+143.484+335.964+143.32+335.873+143.251C335.723+143.134+335.625+142.922+335.78+142.595C336.088+142.194+335.436+141.939+335.436+141.939C335.436+141.939+335.143+141.785+334.873+141.532C334.604+141.285+334.621+140.9+335.03+140.845C335.433+140.789+335.387+140.447+335.155+140.189C334.926+139.942+334.967+139.439+334.967+139.439C334.967+139.439+334.967+139.233+335.061+139.157C335.192+139.176+335.222+139.105+335.28+138.845C335.487+138.716+335.342+138.564+335.342+138.564C335.342+138.564+335.25+138.484+335.217+138.001C335.289+137.733+335.092+137.157+335.092+137.157C335.092+137.157+335.034+135.865+335.092+135.064C335.184+134.657+335.248+132.376+335.248+132.376C335.248+132.376+335.256+132.058+335.373+131.657C335.856+130.576+336.162+128.362+336.373+126.345C336.447+124.5+335.748+122.314+335.748+122.314L334.686+119.282C334.686+119.282+334.55+119.138+334.53+118.657C334.665+118.41+334.655+116.032+334.655+116.032L334.748+114.001C334.748+114.001+334.736+113.165+334.748+112.845C335.191+111.957+335.342+110.907+335.342+110.907C335.342+110.907+335.71+108.22+335.748+107.376C335.789+106.531+335.345+105.105+335.248+104.907C335.152+104.723+335.092+104.47+335.092+104.47L335.092+103.813C335.092+103.813+335.162+102.878+335.03+102.532C334.897+102.186+335.03+101.97+335.03+101.97L335.248+101.407C335.248+101.407+335.447+100.817+335.623+100.126C336.039+99.3629+335.905+98.2821+335.905+98.2821C335.905+98.2821+335.849+98.1458+335.905+97.8758C336.442+97.3698+336.311+96.6258+336.311+96.6258C336.311+96.6258+336.314+96.3926+336.405+96.2196C337.144+95.4856+336.998+94.6883+336.998+94.6883C336.998+94.6883+336.994+94.4276+337.092+94.2196C337.381+93.9095+337.555+93.3676+337.936+92.5945C338.307+91.9976+338.661+90.8978+338.717+90.6258C338.772+90.3558+339.123+89.7195+339.123+89.7195C339.123+89.7195+339.315+89.2505+339.467+88.8445C339.621+88.4485+339.405+87.4383+339.405+87.4383C339.405+87.4383+339.24+86.8337+339.123+86.6257C339.218+86.4467+338.968+86.0482+338.873+85.8132C338.773+85.5792+338.748+85.2507+338.748+85.2507C338.748+85.2507+339+84.4392+339.092+83.6882C339.248+83.1872+339.405+81.5945+339.405+81.5945C339.405+81.5944+339.67+80.7349+339.748+79.9069C339.824+79.0809+339.717+78.2317+339.717+77.7507C339.717+77.2687+339.512+76.1419+339.436+75.7819C339.362+75.4119+339.373+74.8444+339.373+74.8444L339.498+73.8444C339.498+73.8444+339.584+73.1959+339.623+72.9069C339.66+72.6169+339.604+71.3784+339.467+70.7194C339.565+68.9293+338.967+66.0318+338.967+66.0318L338.811+65.3756C338.811+65.3756+339.074+63.5435+339.248+62.1255C339.459+61.4085+339.498+58.688+339.498+58.688L339.498+57.8442C339.498+57.8442+339.629+57.33+339.686+56.813C339.744+56.56+340.217+55.4692+340.217+55.4692L340.842+53.8442C340.842+53.8442+341.111+52.8147+341.436+51.9067C341.961+50.4277+342.091+49.6587+342.436+48.4067C342.763+47.6296+343.155+43.8754+343.155+43.8754L343.592+40.1566C343.592+40.1566+343.766+39.2271+343.842+38.3441C343.92+37.4571+344.28+35.7503+344.28+35.7503C344.28+35.7503+344.719+34.004+344.78+33.719C344.832+33.43+345.145+33.1223+345.28+32.8753C345.474+32.7763+345.498+32.6565+345.498+32.6565C345.498+32.6565+345.496+32.5293+345.592+31.8753C345.744+31.4333+345.655+30.8128+345.655+30.8128C345.655+30.8128+345.641+30.7433+345.686+30.6253C346.455+29.6572+347.217+28.2815+347.217+28.2815L348.248+26.094C348.248+26.094+348.582+25.3705+348.717+24.9065C348.848+24.4395+349.217+23.8752+349.217+23.8752C349.217+23.8752+349.332+23.628+349.78+22.8439C350.221+22.3259+350.811+20.9377+350.811+20.9377C350.811+20.9377+351.176+20.0454+351.311+19.6564C351.443+19.2734+351.228+18.7632+351.092+18.6252C350.959+18.4902+350.659+18.4629+350.467+18.5939C350.274+18.7289+349.945+19.3882+349.811+19.8752C349.672+20.3572+349.342+20.8439+349.342+20.8439L348.842+21.6252L348.061+22.7502C348.061+22.7502+347.895+23.0877+347.592+23.1877C347.282+23.2847+347.437+22.7857+347.498+22.5627C347.553+22.3297+348.061+21.1564+348.061+21.1564C348.061+21.1564+348.342+20.2734+348.592+19.6564C348.746+19.5384+349.155+18.1564+349.155+18.1564L349.53+16.8126C349.53+16.8126+349.71+16.2309+349.905+15.5939C350.095+15.1129+350.081+14.7679+349.998+14.5939C350.02+14.3639+349.597+14.0249+349.248+13.9689C348.899+13.9149+348.707+14.3106+348.592+14.5626C348.476+14.8096+348.308+15.5184+348.248+15.9064C348.197+16.2954+347.936+16.8751+347.936+16.8751L347.561+17.8752L347.061+19.0627L346.592+20.3127C346.592+20.3127+346.474+20.8172+346.28+21.1252C346.054+21.3102+346.037+21.1832+346.061+20.8752C346.061+20.3572+346.467+19.2814+346.467+19.2814C346.467+19.2814+346.639+18.4377+346.78+17.9377C346.912+17.7467+346.998+17.0626+346.998+17.0626L347.217+15.5939C347.217+15.5939+347.408+14.3784+347.561+13.7814C347.68+13.4934+347.592+13.1191+347.498+13.0001C347.478+12.6791+347.017+12.5191+346.655+12.5001C346.284+12.4811+346.092+13.0626+346.092+13.0626C346.092+13.0626+345.981+13.7374+345.905+14.1564C345.825+14.5824+345.592+15.3439+345.592+15.3439L345.248+16.4689L344.967+17.7502C344.967+17.7502+344.762+18.6684+344.686+19.0314C344.612+19.3964+344.424+19.9392+344.311+20.1252C344.19+20.3222+343.981+20.2909+343.842+20.2189C343.707+20.1439+343.592+19.8752+343.592+19.8752L343.811+18.0939C343.811+18.0939+343.827+17.7357+343.905+17.1876C343.98+16.9636+343.998+15.7049+343.998+15.4689C343.998+15.2489+344.092+14.4376+344.092+14.4376L344.342+13.0626C344.342+13.0626+344.345+12.6424+344.248+12.5314C344.306+12.3584+343.963+11.9689+343.498+11.9689C342.938+12.0299+342.748+12.9064+342.748+12.9064C342.748+12.9064+342.561+13.7729+342.561+13.9689C342.561+14.1619+342.373+15.0314+342.373+15.0314C342.374+15.0314+342.155+16.3961+342.092+16.7501C342.032+17.1161+341.745+18.6424+341.686+19.0314C341.629+19.4074+341.311+20.3752+341.311+20.3752C341.311+20.3752+341.07+21.2027+340.967+21.4377C340.877+21.6717+340.498+22.1252+340.498+22.1252C340.498+22.1252+340.164+22.4887+340.03+22.6877C339.897+22.8717+339.727+23.0147+339.342+23.1877C338.956+23.3607+338.78+22.8752+338.78+22.8752L338.217+21.5314C338.217+21.5314+338.101+21.2879+337.967+20.8439C338.045+20.5919+337.467+19.6564+337.467+19.6564C337.467+19.6564+336.652+18.4182+335.905+18.3752C335.191+18.4982+335.373+19.1877+335.373+19.1877C335.373+19.1877+335.715+19.8724+335.811+20.0314C335.912+20.1804+336.123+20.9689+336.123+20.9689C336.123+20.9689+336.157+21.5654+336.311+21.7814C336.463+21.9904+336.592+22.5314+336.592+22.5314C336.592+22.5314+336.93+23.4427+337.061+24.3127C336.944+24.9787+337.202+25.524+337.373+25.844C337.547+26.171+337.702+26.8135+337.873+27.4065C338.045+28.0085+338.294+28.7595+338.53+29.0315C338.753+29.2965+338.879+29.752+339.092+30.344C338.979+30.425+338.967+30.7503+338.967+30.7503C338.967+30.7503+338.991+31.238+338.936+31.594C338.721+32.274+338.998+32.4378+338.998+32.4378C338.998+32.4378+339.041+33.0345+338.998+33.4065C338.963+33.7755+338.592+35.0316+338.592+35.0316L337.967+37.3441L337.186+40.4066C337.186+40.4066+336.703+42.0839+336.123+43.5629C335.164+45.8329+334.873+47.3129+334.873+47.3129C334.873+47.3129+334.295+50.2617+334.217+50.7817C334.143+51.2997+333.911+52.449+333.717+52.813C333.526+53.172+333.123+54.313+333.123+54.313C333.123+54.313+332.717+56.4245+332.717+56.7505C332.717+57.0845+332.549+57.8387+332.373+58.2818C332.205+58.7158+331.592+60.7818+331.592+60.7818C331.592+60.7818+331.164+62.3433+330.936+63.5943C330.686+64.5133+330.342+67.4381+330.342+67.4381L330.248+68.5318C330.248+68.5318+330.257+68.6103+330.123+68.8443C329.953+68.8983+329.873+69.1568+329.873+69.1568C329.873+69.1568+329.643+69.8271+329.623+70.0631C329.609+70.2911+329.373+70.8756+329.373+70.8756C329.373+70.8756+329.039+71.7474+328.998+72.0944C328.967+72.4404+328.932+73.5511+328.967+73.6881C329.006+73.8231+329.066+74.1404+328.967+74.3444C328.699+74.4424+328.479+74.9766+328.498+75.1256C328.52+75.2786+328.297+75.4794+328.123+75.3444C327.949+74.7814+327.561+74.3444+327.561+74.3444L327.061+73.5944C327.043+73.4634+327.373+72.8131+327.373+72.8131C327.373+72.8131+327.563+72.3271+327.717+71.9381C327.987+71.6111+328.066+70.8401+328.123+70.0631C328.353+69.8651+328.136+69.0499+328.061+68.5318C328.21+68.4088+328.155+67.8131+328.155+67.8131C328.155+67.8131+328.046+67.1791+328.123+66.5631C328.236+66.4031+328.155+65.5943+328.155+65.5943L327.905+64.7193C327.905+64.7193+327.83+64.0128+327.655+63.5318C327.694+62.9128+327.444+62.8858+327.342+62.7818C327.248+62.6818+327.123+62.4108+327.123+62.2818C327.123+62.1458+327.037+61.855+326.842+61.688C326.842+61.495+326.416+61.3223+326.092+61.0943C326.221+60.6313+325.78+60.4693+325.78+60.4693L325.155+59.7818L324.873+59.438C324.873+59.438+324.577+59.5053+324.311+59.3443C324.346+58.9753+323.879+58.8263+323.686+58.8443C323.494+58.8632+323.404+58.8225+323.248+58.6255C323.23+58.3615+322.873+58.2505+322.873+58.2505C322.873+58.2505+322.27+58.0855+321.904+57.8755C321.674+57.5425+320.904+57.063+320.904+57.063C320.904+57.063+320.547+56.9752+320.373+57.0942C320.028+56.8412+319.502+56.984+319.092+57.063C318.441+56.736+317.654+56.7505+317.654+56.7505C317.655+56.7505+316.507+56.889+316.279+56.938C316.044+56.963+314.779+57.313+314.779+57.313C314.779+57.313+313.957+57.4795+313.342+57.7505C312.432+58.0465+311.779+59.063+311.779+59.063C311.779+59.063+311.421+59.584+310.998+60.063C310.576+60.544+310.14+61.0648+310.029+61.2818C309.913+61.4908+309.758+61.6713+309.561+61.8443C309.372+62.0123+309.318+62.2293+309.279+62.5943C309.165+62.7853+309.127+62.8673+308.936+63.0943C308.739+63.3313+308.592+63.4693+308.592+63.4693L308.779+63.4693L308.623+63.8755C308.623+63.8755+308.418+64.3978+308.248+64.7818C308.072+65.1638+308.061+65.8443+308.061+65.8443C308.061+65.8443+308.281+65.2558+308.436+65.1568C308.586+65.0578+308.629+65.3516+308.592+65.5006C308.557+65.6546+308.332+65.8383+308.311+66.2193C308.502+65.7023+308.529+66.0318+308.529+66.0318C308.529+66.0318+308.421+66.7298+308.404+67.0318C308.384+67.3408+308.475+67.6451+308.592+68.1881C308.401+68.3421+308.436+70.0319+308.436+70.0319L308.123+69.9381L307.842+69.6881C307.842+69.6881+307.701+69.6106+307.623+69.3756C307.779+68.9926+307.373+68.9693+307.373+68.9693C307.373+68.9693+307.249+68.9208+307.092+68.6568C307.13+68.2128+306.883+68.1663+306.654+67.9693C306.86+67.0923+306.167+66.6943+305.936+66.5943C305.708+66.4963+305.186+66.0006+305.186+66.0006C305.186+66.0006+305.014+65.6591+304.686+65.3131C304.43+65.1411+304.51+64.6186+304.686+64.1256C304.957+63.7685+304.623+63.5943+304.623+63.5943L304.248+63.0318C304.248+63.0318+304.006+62.8393+303.717+62.4693C303.697+62.2233+303.467+62.0943+303.467+62.0943C303.467+62.0943+302.946+60.2003+302.561+58.9693C302.268+57.8583+301.349+55.9827+301.154+55.6567C300.966+55.3287+300.686+54.6567+300.686+54.6567C300.686+54.6567+300.521+54.1615+300.248+53.1255C299.943+52.1244+300.029+50.3442+300.029+50.3442C300.029+50.3442+299.998+49.0982+299.748+47.3442C299.5+45.5991+298.548+43.5836+298.279+42.9066C298.009+42.2346+296.873+39.2503+296.873+39.2503L295.654+36.2816L294.654+33.594C294.654+33.594+294.35+32.642+294.217+31.969C294.217+31.679+293.935+30.9065+293.935+30.9065L293.592+29.9065C293.592+29.9065+293.294+28.9762+293.06+28.0002C293.021+27.6942+292.726+26.5452+292.435+25.3752C292.365+24.7382+291.936+23.6275+291.842+23.2814C291.74+22.9375+291.748+22.4064+291.748+22.4064L291.904+21.5939C291.904+21.5939+291.865+20.7414+291.904+19.7814C291.834+19.2624+291.873+18.3752+291.873+18.3752C291.873+18.3752+291.94+16.5941+291.998+15.2501C292.153+14.3261+292.092+12.5626+292.092+12.5626C292.092+12.5626+292.07+12.0901+292.154+11.2501C292.4+10.2461+292.365+9.62108+292.342+8.75008C292.42+8.01607+292.288+7.23906+292.154+6.62506C292.171+6.21705+291.873+4.96879+291.873+4.96879L291.56+3.78128L291.217+3.09378L291.123+2.40627C291.123+2.40627+290.979+2.08227+290.967+1.78127C290.945+1.47226+290.842+0.750006+290.842+0.750006C290.842+0.750006+290.61+0.0429996+289.998+0ZM61.8085+19.8127C60.5465+19.7477+61.158+21.2469+61.371+22.3439C60.879+22.0669+60.4672+22.7772+60.5272+22.6252C60.5942+22.4732+60.183+25.2447+59.996+26.6877C59.57+28.5628+60.0292+28.848+60.1522+29.094C60.2732+29.339+60.7438+29.6253+60.9647+29.6253C61.1717+29.6253+61.7148+29.8465+61.9648+29.9065C62.2048+29.9655+65.7498+31.1285+65.9648+31.1565C66.1798+31.1965+66.9083+31.502+67.2773+31.594C67.6483+31.688+68.5686+32.6633+68.8086+33.1253C69.4246+35.5493+69.8086+40.5316+69.8086+40.5316L69.0273+40.6878L68.5273+40.8754C68.5273+40.8754+68.0901+41.3776+67.9961+41.5316C67.906+41.6836+67.9023+41.9084+67.9023+42.1254C67.9023+42.3384+68.0608+42.6016+68.2148+42.7816C68.3668+42.9746+68.5643+43.1946+68.6523+43.4066C68.7443+43.6276+68.9691+45.9109+68.9961+46.0629C69.0311+46.2189+69.0311+46.4181+69.1211+47.0942C69.2151+47.7632+69.0538+47.8797+68.9648+48.2817C68.8748+48.6797+69.0638+48.4784+69.3398+48.6254C69.6208+48.7834+69.6836+48.8442+69.6836+48.8442C69.6836+48.8442+69.7153+49.1314+69.7773+49.2504C69.8383+49.3704+69.8811+53.7245+70.1211+57.6255C70.1901+62.2315+70.7813+62.9443+71.1523+64.7193C71.4903+65.6043+71.5291+67.4908+71.4961+68.7818C71.3731+70.2248+71.6248+70.4601+71.7148+71.0631C71.7739+71.4321+71.6836+72.2819+71.6836+72.2819C71.6836+72.2819+71.5863+73.3161+71.5273+73.6881C71.4633+74.0571+71.5586+74.4976+71.5586+74.7506C71.5586+74.9946+71.8398+75.8737+71.8398+76.0007C71.8399+76.1176+71.9648+77.0632+71.9648+77.0632C71.9648+77.0632+72.0586+77.3754+72.0586+77.5944C72.0586+77.7984+72.1211+78.4372+72.1211+78.5632L72.1211+79.9382C72.1211+79.9382+72.2153+80.4074+72.2773+80.7194C72.3363+81.0215+72.2771+82.7332+72.2461+83.1882C72.2151+83.6462+71.2461+85.4695+71.2461+85.4695C71.2461+85.4695+70.9348+86.2505+70.8398+86.4695C70.7538+86.6885+70.7523+86.9862+70.9023+87.6883C71.0083+88.1782+71.1496+88.9458+71.1836+89.2508C71.2126+89.5558+71.4298+89.6305+71.2148+89.9695C70.9958+90.3095+70.5543+90.0945+70.2773+90.0945C70.0013+90.0945+70.0856+90.222+69.8086+90.532C69.5326+90.831+69.6523+91.7041+69.6523+91.907C69.6523+92.128+69.6248+92.509+69.7148+92.782C69.8068+93.054+69.6211+93.2508+69.6211+93.2508C69.6211+93.2508+69.6228+93.4701+69.4648+93.6571C69.3158+93.8411+69.2931+93.7048+69.1211+93.7508C68.9531+93.7888+68.3831+93.9668+68.2461+94.0008C68.1091+94.0328+67.7911+94.0051+67.6211+94.0321C67.452+94.0451+67.2928+94.104+67.3398+94.0321C67.3848+93.9531+67.8466+92.8328+67.9336+92.5008C68.0276+92.1648+69.6351+88.87+69.2461+84.407C69.1121+83.1619+68.5586+81.0944+68.5586+81.0944L68.4961+80.9069C68.4961+80.9069+68.8028+82.1329+68.4648+80.7819C67.3888+77.1089+65.3595+74.4726+64.6835+73.3756C60.9995+67.7216+56.3662+67.9971+56.0272+68.0631C55.6912+68.1141+55.2975+68.3841+55.0584+68.4381C54.8125+68.5041+54.9277+68.4736+54.5897+68.5006C49.8296+68.6196+47.7341+72.2969+47.1521+73.1569C45.1271+75.6409+42.5483+85.0467+41.9333+87.2507C41.0753+89.6808+40.7458+92.0008+40.7458+92.0008L40.5271+92.032C40.5271+92.032+39.8751+91.7053+39.7771+91.6883C39.6891+91.6603+39.0271+91.5945+39.0271+91.5945C39.0271+91.5945+38.8023+91.5633+38.6833+91.5633C38.5623+91.5633+38.277+91.3445+38.277+91.3445C38.277+91.3445+37.7773+90.679+37.6833+90.532C37.5883+90.394+37.3708+89.5008+37.3708+89.5008C37.3708+89.5008+37.1848+88.9353+36.9958+88.4383C36.7068+87.9342+36.0313+87.6637+35.9333+87.6258C35.8453+87.5798+35.6385+87.2405+35.5895+87.0945C35.5385+86.9485+35.3593+86.57+35.3083+86.407C35.2593+86.241+35.0285+85.7822+34.8395+85.5632C34.6475+85.3512+34.4785+85.1755+34.2145+84.8445C33.9505+84.5015+33.1715+83.2665+32.8395+82.7195C32.6715+82.1235+31.6967+81.0572+31.6207+80.9382C31.5528+80.8262+31.366+80.5625+31.277+80.4694C31.177+80.3644+31.1615+80.0554+31.0895+79.8444C31.0195+79.6344+30.5855+78.6102+30.4645+78.4382C30.3465+78.2732+29.6772+77.7082+29.5582+77.5632C29.4372+77.4242+28.848+76.5544+27.652+74.4694C26.0779+71.6093+25.7907+71.2666+25.6207+71.0006C25.4567+70.7356+24.8744+70.1301+24.5894+69.6881C24.3084+69.2251+22.5347+65.7238+22.3707+65.4068C22.2047+65.0938+21.4332+63.688+21.4332+63.688L21.2457+63.313L21.0582+63.0943L20.9019+62.5318L20.1519+61.063C20.1519+61.063+19.9081+60.3915+19.8081+60.2505C19.7122+60.1065+19.2459+59.4613+19.1519+59.3443C19.0569+59.2243+18.6206+58.5318+18.6206+58.5318L18.4956+58.3755L18.3081+58.188L18.2769+57.9067L18.4644+57.813C18.4644+57.813+18.5134+57.7195+18.4644+57.6255C18.4154+57.5275+18.3706+57.438+18.3706+57.438L18.2144+57.1255C18.2144+57.1255+17.9451+56.6127+17.6831+56.2817C17.4191+55.9377+16.9021+54.8775+16.8081+54.6255C16.7111+54.3945+16.5861+54.0265+16.5581+53.8755C16.5351+53.7335+16.3321+53.0022+16.3081+52.8442C16.2831+52.6712+16.2656+52.1862+16.2456+52.0942C16.2206+52.0022+16.2144+51.7192+16.2144+51.7192C16.2144+51.7192+15.9824+51.4797+15.8394+51.4067C15.6964+51.3397+15.4656+51.2359+15.3706+51.1879C15.2786+51.1489+15.0488+51.2149+14.9018+51.1879C14.7578+51.1689+14.7143+51.3442+14.7143+51.3442C14.7143+51.3442+14.5096+51.3537+14.3706+51.4067C14.2246+51.4597+14.1106+51.4814+13.9956+51.6254C13.8746+51.7734+13.7103+51.8407+13.5893+51.9067C13.4703+51.9807+13.3706+51.9067+13.3706+51.9067L13.0581+51.3442C11.7151+49.0662+10.9643+46.2816+10.9643+46.2816C10.9643+46.2817+10.7491+45.6234+10.4331+45.1254C10.1221+44.6214+10.0281+44.3841+9.93306+44.2191C9.84104+44.0461+9.68305+43.6254+9.68305+43.6254C9.68306+43.6254+9.60705+43.4131+9.55805+42.8441C9.55805+42.0621+9.19854+40.5614+9.12055+40.2503C9.00356+39.9384+8.30804+37.8753+8.30804+37.8753C8.30804+37.8753+8.22405+37.5371+8.18304+37.3441C8.13205+37.1541+7.99554+36.8441+7.99554+36.8441C7.99553+36.8441+7.79303+36.6176+7.43304+36.4066C7.07205+36.1936+5.90177+34.6253+5.90177+34.6253C5.90177+34.6253+5.64928+34.2333+5.33927+33.8753C5.02227+33.5193+3.93301+33.5628+3.93301+33.5628C3.93301+33.5628+3.85651+33.5515+3.4955+33.4065C3.09251+33.1155+2.55199+33.2285+2.43299+33.2815C2.315+33.3225+2.28224+33.4008+2.21424+33.8128C2.14023+34.3278+3.308+35.0628+3.308+35.0628C3.308+35.0628+3.558+35.2843+3.558+35.3753C3.55799+35.4823+3.52675+35.7503+3.52675+35.7503C3.52676+35.7503+3.46825+35.7148+3.21425+35.6878C2.95023+35.6668+2.74349+35.7816+2.62049+35.7816C2.49949+35.7816+2.13073+36.0271+1.77674+36.3441C1.41573+36.6481+1.83924+37.6253+1.83924+37.6253C1.83923+37.6253+1.56349+37.6253+1.37048+37.6253C1.17748+37.6253+0.893988+37.7446+0.557976+38.1566C0.251979+38.6986+0.82549+39.5376+0.870479+39.6566C0.914486+39.7826+0.96423+40.0316+0.96423+40.0316C0.964214+40.0316+0.755477+40.0656+0.495476+40.1566C-0.391541+40.3966+0.182973+41.8129+0.182973+41.8129C0.182973+41.8129+0.350216+42.5436+0.464225+42.7816C0.589232+43.0186+0.800481+43.1991+0.870479+43.3441C0.940492+43.4921+0.943233+43.9021+0.96423+44.0941C0.988227+44.2851+1.15173+44.6879+1.15173+44.6879L1.43298+44.8754L1.62049+45.0629C1.62047+45.0629+1.84948+45.4841+2.37049+46.2191C2.94349+46.8942+3.433+46.7817+3.433+46.7817C3.43301+46.7817+3.64551+46.7869+3.7455+46.8129C3.83951+46.8329+3.95276+47.0334+4.02676+47.1254C4.09778+47.2244+4.217+47.5619+4.30801+47.6879C4.40401+47.8069+4.642+48.3094+4.68301+48.5004C4.73202+48.6934+5.0475+49.3097+5.62052+50.0317C6.91653+52.1767+7.99554+54.7505+7.99554+54.7505L7.74554+54.9692L7.62054+55.063L7.55804+55.2817C7.55806+55.2817+7.31779+55.339+7.15178+55.438C6.98375+55.532+6.90704+55.7262+6.80803+55.8442C6.71205+55.9642+6.24552+56.2817+6.24552+56.2817L5.96427+56.563L5.62052+56.6255C5.6205+56.6255+5.53102+56.7522+5.43302+56.8442C5.34403+56.9492+5.34551+57.011+5.24552+57.063C5.14951+57.101+5.08927+57.2192+5.08927+57.2192C5.08926+57.2192+4.95101+57.5282+4.93301+57.7192C4.90203+57.9122+4.83926+58.1357+4.83926+58.2818C4.83926+58.4198+5.03826+58.597+5.08927+58.688C5.13828+58.781+5.46427+59.063+5.46427+59.063C5.46428+59.063+5.72228+59.2903+5.83927+59.3443C5.96226+59.3963+6.24527+59.4068+6.33928+59.4068C6.43329+59.4068+6.52477+59.4838+6.65178+59.5318C6.77078+59.5778+7.00152+59.7868+7.12053+59.9068C7.23553+60.0268+7.38479+60.0898+7.52679+60.1568C7.66978+60.2358+8.43704+61.0698+8.55804+61.2818C8.67703+61.4958+9.5893+63.1255+9.5893+63.1255C9.5893+63.1255+9.79006+63.4815+9.93306+63.6255C10.0791+63.7646+10.1768+63.6255+10.2768+63.6255C10.3678+63.6256+10.5581+63.688+10.5581+63.688C10.5581+63.688+10.6308+64.05+10.6518+64.1881C10.6718+64.3351+10.9548+65.0141+11.0268+65.1881C11.0978+65.3571+13.2456+69.8756+13.2456+69.8756C13.2456+69.8756+15.0126+73.1701+15.3706+73.8131C15.6106+74.2671+17.0581+77.8132+17.0581+77.8132C17.0581+77.8132+18.0321+79.8714+18.5581+81.0944C18.9851+81.9965+19.2769+84.3445+19.2769+84.3445C19.2769+84.3444+19.4256+85.7925+19.6206+86.8445C19.9506+89.1155+21.4019+91.282+21.4019+91.282C21.4019+91.282+21.7219+91.8663+22.0269+92.5633C22.2179+93.1383+22.8394+94.3758+22.8394+94.3758C22.8394+94.3758+23.2734+95.2233+23.8394+95.9383C24.2714+96.5083+26.8707+99.1571+26.8707+99.1571L27.3395+99.5634L27.8082+100.063C27.8082+100.063+28.1915+100.578+28.3395+100.751C28.4825+100.922+29.6832+102.845+29.6832+102.845L29.9645+103.126C29.9645+103.126+30.209+103.318+30.277+103.438C30.351+103.555+30.4957+104.043+30.4957+104.188C30.4957+104.334+30.6207+104.595+30.6207+104.595C30.6207+104.595+30.9237+105.073+30.9957+105.313C31.0658+105.548+31.1207+105.944+31.1207+106.063C31.1207+106.182+31.0975+106.7+31.2145+106.938C31.2845+107.176+33.1573+109.761+33.6833+110.438C34.2043+111.101+34.652+112.063+34.652+112.063C34.652+112.063+35.412+113.194+35.527+113.313C35.646+113.437+37.3903+115.669+37.5583+115.907C37.7283+116.138+39.0136+117.525+39.4646+118.001C39.9196+118.478+40.5896+119.532+40.5896+119.532L40.9958+120.064C40.9958+120.064+41.1966+120.33+41.3396+120.595C41.4836+120.859+41.8811+123.88+41.9021+124.032C41.9291+124.172+41.9781+125.236+42.0271+125.439C42.0761+125.659+42.3396+129.157+42.3396+129.157C42.3396+129.157+42.5583+130.081+42.5583+130.345C42.5583+130.604+42.8708+133.664+42.8708+133.876C42.8708+134.094+43.0521+135.179+43.1521+135.689C43.2461+136.191+43.2989+136.678+43.3708+136.97C43.4389+137.263+43.6208+138.407+43.6208+138.407C43.6209+138.407+43.7146+138.81+43.7146+139.001C43.7146+139.187+43.7788+139.194+43.8708+139.532C43.9708+139.863+44.0093+140.068+44.0583+140.189C44.1034+140.299+44.3146+140.847+44.3396+140.939C44.3626+141.046+44.4959+141.532+44.4959+141.532C44.4958+141.532+44.6594+142.335+44.6834+142.439C44.7025+142.505+44.8161+143.12+44.9334+143.657L91.2775+143.657C91.2761+143.644+91.2787+143.64+91.2775+143.626C91.3345+143.227+90.805+142.716+90.59+142.345C90.553+141.734+90.0587+141.095+90.0587+141.095L89.9025+140.845L89.84+140.689L89.84+140.407L89.9337+140.157C89.9337+140.157+90.1947+140.004+90.4337+139.97C90.6798+139.937+90.9983+139.557+91.1213+139.501C91.2463+139.437+91.1838+139.251+91.1838+139.251L91.59+138.97C91.59+138.97+92.3108+138.626+92.4338+138.626C92.5627+138.626+92.59+138.282+92.59+138.282L92.715+137.907C92.715+137.907+92.3378+137.413+92.3088+137.282C92.2788+137.168+91.6838+136.282+91.6838+136.282L91.5275+136.032L91.5588+135.689C91.5587+135.689+91.151+134.716+91.09+134.564C91.03+134.411+90.3712+133.157+90.3712+133.157L90.2462+132.814L90.1212+132.564C90.1212+132.564+89.953+132.235+89.465+131.22C88.242+128.605+86.7462+122.064+86.7462+122.064C86.7462+122.064+86.7229+121.522+86.84+121.282C86.9689+121.032+87.0552+120.304+86.9962+119.564C87.0212+118.247+86.7462+117.782+86.7462+117.782C86.7462+117.782+86.6175+117.581+86.5275+117.064C86.7364+116.05+86.6217+115.432+86.5587+115.126C86.5007+114.822+86.3675+114.563+86.2775+114.438C86.1834+114.318+86.1525+113.72+86.1525+113.72C86.1525+113.72+86.1485+113.241+85.9025+112.751C85.6584+112.387+85.4962+110.876+85.4962+110.876C85.4962+110.876+85.4527+110.037+85.0587+108.563C84.6637+106.541+83.7149+104.782+83.7149+104.782L83.6837+104.47C83.6837+104.47+83.7537+104.144+83.8087+104.001C83.8747+103.841+83.8087+103.657+83.8087+103.657L83.8399+103.032C83.8399+103.032+83.7444+102.574+83.5274+101.407C83.4365+98.1221+83.7827+92.9253+83.8087+92.0633C84.0297+91.0563+84.2462+85.657+84.2462+85.657C84.2462+85.657+84.2262+84.6992+84.2462+85.1882C84.2732+85.6512+84.3122+84.4695+84.3712+84.3445C84.4372+84.2175+84.4675+83.9895+84.5274+83.0945C84.8035+77.9714+83.9902+76.3037+83.8712+76.0007C83.7502+75.6887+83.8399+75.7999+83.7149+75.1569C83.6249+74.1779+82.5864+71.5884+82.5274+71.3444C82.4704+71.0933+82.3692+71.1344+82.1212+70.0944C82.0002+64.9033+81.3094+62.7745+81.2774+62.2505C80.9164+57.3055+79.3087+50.2817+79.3087+50.2817C79.3087+50.2817+79.1814+49.1604+79.1524+49.0004C79.1184+48.8544+78.9067+48.4382+79.1837+48.2192C79.4607+48.0072+79.2462+48.0274+79.2462+47.8754C79.2462+47.7234+79.1814+46.3011+79.1524+45.8441C79.1184+45.3821+79.0917+44.2514+79.1837+44.1254C79.2717+43.9994+79.3461+43.4294+79.3712+43.2504C79.4061+43.0654+79.8997+42.4041+79.9337+42.2191C79.9607+42.0331+80.0589+41.5551+80.0899+41.3441C80.1249+41.1321+79.8364+40.9101+79.7774+40.7191C79.7194+40.5481+79.4281+40.4961+79.2462+40.4691C79.0611+40.4381+78.6764+40.4733+78.2774+40.5003C77.8794+40.5424+77.3664+40.5003+77.1524+40.5003C76.9374+40.5004+76.0274+40.4066+76.0274+40.4066C76.0274+40.4066+75.7461+39.6636+75.7461+39.5316C75.7461+39.4106+74.8381+36.5253+74.3711+34.3753C73.9431+31.4673+73.4916+31.05+73.3086+30.594C73.1246+30.131+72.9298+29.5833+72.7148+29.0002C72.4999+28.4182+71.2733+27.7877+71.0273+27.6877C70.7813+27.6017+70.3968+27.4952+70.0898+27.2502C69.6308+26.4802+67.0218+25.2825+66.8398+25.1565C66.6528+25.0385+66.5585+24.8752+66.5585+24.8752L66.0898+24.3752C66.0898+24.3752+65.7945+23.9327+65.1835+23.5627C64.5685+23.1917+64.277+22.7842+64.121+22.5002C64.039+22.3412+63.8083+21.7712+63.6523+21.3752C63.4963+20.9782+63.1085+20.7339+62.8085+20.3439C62.4975+19.9389+62.2045+19.8727+61.8085+19.8127ZM94.1838+35.3441C92.5778+36.1221+91.389+36.7113+90.465+38.1253C90.08+38.5573+90.2302+39.9614+90.2462+40.7503C90.6893+40.9804+91.2677+41.0606+92.0588+41.0316C92.4418+43.1346+91.4538+45.2576+91.9338+48.1567C92.5398+51.6977+94.264+54.9382+94.965+58.8443C96.213+65.7843+103.997+91.5053+107.809+97.0633C109.87+100.05+110.797+103.145+113.871+105.126C112.955+110.456+111.321+115.864+110.309+121.657C109.766+124.852+110.22+130.12+110.996+133.032C111.33+134.313+112.147+136.32+111.778+138.282C111.542+140.072+111.296+141.863+111.059+143.657L147.778+143.657C149.361+140.819+151.098+138.129+152.747+135.532C154.475+132.817+155.447+129.759+157.372+127.314C160.236+128.154+163.766+134.847+165.841+136.97C167.927+139.121+170.806+140.477+172.716+142.814C172.925+143.07+173.105+143.391+173.309+143.657L189.466+143.657C189.427+143.602+189.411+143.526+189.372+143.47C186.618+139.547+182.988+136.217+180.497+132.095C178.831+129.319+177.957+126+175.872+123.626C173.897+121.387+170.948+119.741+169.122+117.407C166.347+113.878+166.053+106.864+162.403+103.938C157.579+100.09+149.114+99.9059+145.215+98.2508C145.637+96.2718+146.606+94.3753+147.184+92.4383C148.11+89.4343+148.297+86.6755+149.309+84.2195C147.323+80.9485+150.42+79.8639+149.309+75.7819C148.905+74.2129+148.307+73.0771+147.59+71.6881C147.087+70.7311+146.338+69.3838+145.747+69.0318C144.487+68.2918+143.221+68.5736+141.903+68.0006C141.371+67.7576+141.084+67.3381+140.715+66.9381C138.766+66.8391+136.84+66.7548+134.903+66.6568C130.139+68.9499+126.692+75.3244+126.84+81.4694C126.506+81.4514+126.678+81.4945+126.309+81.3444C124.729+85.5475+127.45+87.5133+128.684+90.4383L128.684+94.5321C128.598+94.5141+128.491+94.4743+128.403+94.4383C127.837+94.6973+125.988+92.8563+125.247+92.3133C121.901+89.8953+119.081+88.353+116.528+85.157C115.467+84.009+114.399+82.8785+113.34+81.7195C111.537+78.0674+109.737+74.4146+107.934+70.7506C105.084+65.9266+101.72+60.9228+99.7463+55.2817C98.7693+52.5247+99.3246+47.9072+100.153+44.9691C100.376+44.1361+100.586+43.3011+100.809+42.4691C99.5628+40.1611+98.3241+37.8781+97.0901+35.5941C96.102+35.5091+95.1468+35.4321+94.1838+35.3441ZM372.811+35.3441C372.391+35.393+372.335+35.7715+372.186+35.9066C372.038+36.0426+371.901+36.2731+371.53+37.2191C371.165+38.1551+371.364+38.0736+371.186+38.4066C371.013+38.7406+370.369+38.9878+370.061+39.0628C369.752+39.1358+369.217+39.4163+368.655+39.7503C368.093+40.0834+368.58+41.4009+368.53+41.8129C368.475+42.2229+368.07+42.2954+367.686+42.5004C367.304+42.7014+366.872+43.0561+366.342+43.4691C365.812+43.8701+365.365+45.0779+365.342+45.3129C365.315+45.5339+365.261+45.8474+365.155+46.1254C365.056+46.4144+363.852+49.0999+363.624+49.5629C363.389+50.0249+362.071+52.669+361.874+53.188C361.664+53.693+360.251+56.5697+359.936+57.1567C359.592+57.7487+357.937+61.3933+357.499+62.2193C357.067+63.0343+356.087+66.4346+355.811+67.3756C355.532+68.3286+355.354+69.5894+355.217+70.0944C354.786+71.2734+355.119+72.2029+355.28+72.7819C355.599+73.8359+355.515+74.3941+355.436+75.3131C355.206+76.8992+355.385+78.4939+355.467+79.4069C355.54+80.3309+356.086+83.9705+356.217+84.9695C356.679+88.2635+357.328+90.638+357.592+91.532C357.845+92.426+358.927+95.5888+359.186+96.1258C359.433+96.6688+360.406+99.4724+360.592+100.188C360.764+100.905+360.691+100.694+360.53+101.157C360.199+102.021+360.35+102.705+360.436+102.938C360.51+103.166+360.348+103.813+360.28+104.251C360.201+104.683+360.374+104.824+360.374+105.157C360.374+105.492+359.862+106.215+359.53+106.782C359.196+107.344+357.632+109.825+357.28+110.282C355.052+113.453+356.303+116.6+356.561+117.47C356.913+118.519+357.203+119.733+357.405+120.407C357.665+121.197+357.585+122.17+357.53+123.126C357.475+124.071+357.737+125.218+357.842+126.532C357.941+127.834+358.007+128.927+357.655+129.814C357.422+130.396+357.25+130.957+356.967+131.626C356.689+132.286+356.324+134.714+356.249+135.22C356.168+135.739+355.959+136.351+355.905+136.782C355.855+137.22+355.55+137.531+355.374+137.814C355.181+138.091+355.155+138.158+355.186+138.72C355.211+139.281+355.061+139.13+355.061+139.47C355.061+139.797+356.699+140.2+358.186+140.72C359.66+141.236+360.762+141.451+360.936+141.532C361.095+141.76+361.061+142.739+361.061+143.407C361.061+143.48+361.062+143.574+361.061+143.657L390.561+143.657C390.439+143.542+390.258+143.37+390.186+143.282C389.95+143.029+389.945+142.893+389.811+142.501C389.712+141.902+389.265+141.717+389.124+141.564C389.063+141.507+389.03+141.405+389.03+141.22C389.03+140.935+389.15+140.98+389.249+140.751C389.26+140.591+389.204+140.547+389.093+140.126C388.975+139.707+388.94+139.493+388.905+139.282C388.866+139.075+388.728+138.954+388.655+138.782C388.575+138.61+388.593+138.025+388.593+137.407C388.593+136.797+388.55+136.724+388.468+136.251C388.39+135.774+388.054+134.58+387.905+134.001C387.757+133.425+387.846+133.29+387.999+132.626C388.16+131.945+388.067+131.451+387.999+131.126C387.919+130.796+387.509+130.371+387.374+130.064C387.25+129.754+387.435+129.648+387.593+129.376C387.751+129.104+387.771+128.588+387.999+127.439C388.227+126.286+388.112+125.111+388.093+124.814C388.062+124.532+388.008+124.459+388.218+124.095C388.428+123.731+388.291+123.44+388.155+122.595C388.018+121.756+388.452+121.131+388.718+120.657C388.984+120.175+388.951+119.657+389.03+119.189C389.105+118.708+389.562+118.35+389.968+117.314C390.363+116.285+390.355+116.103+390.468+115.532C390.591+114.958+390.912+114.248+391.53+113.157C392.133+112.064+392.289+111.705+392.499+111.063C392.696+110.401+393.233+109.27+393.405+108.688C393.579+108.123+393.368+106.952+393.343+106.47C393.333+105.989+394.225+105.639+394.436+105.501C394.64+105.373+394.723+104.678+394.78+104.313C394.841+103.951+395.003+103.943+395.311+103.782C395.625+103.633+395.468+103.395+395.468+102.938C395.468+102.475+395.518+102.457+395.593+102.157C395.666+101.846+395.911+101.291+395.936+101.063C396.984+97.8364+397.301+94.5536+397.343+93.5946C397.442+90.3765+398.207+88.3833+398.343+87.5633C398.479+86.7512+398.537+86.4805+399.03+87.3445C399.894+89.0215+398.786+90.8878+398.655+91.2508C398.521+91.6088+398.987+91.5728+399.436+91.2508C401.922+89.0308+399.74+84.3967+399.468+84.1257C399.196+83.8537+399.173+83.8332+399.53+82.5632C399.902+81.2912+400.504+78.7199+400.874+77.4069C401.367+76.0699+402.188+72.7399+402.78+71.2819C403.459+69.7468+403.705+68.3121+404.155+66.8131C405.011+64.2291+405.218+61.5615+405.28+60.0005C405.28+59.2915+406.693+50.3569+407.593+48.3129C407.827+47.5819+408.009+46.8862+408.28+46.3441C408.646+46.0592+409.005+45.5889+410.436+45.5629C411.879+45.5389+411.571+45.6116+411.874+45.5316C412.181+45.4586+412.45+45.2479+412.53+45.0629C412.606+44.8669+413.085+44.9611+413.468+44.8441C413.857+44.7341+414.006+44.5766+414.155+44.1566C414.309+43.7376+414.371+43.7166+414.562+43.4066C414.753+43.0996+414.72+42.3536+414.749+41.7816C414.794+41.2066+414.931+40.4751+415.03+40.0941C415.191+39.6811+415.321+39.7194+415.499+39.7503C415.677+39.7743+415.472+39.4721+415.405+39.2191C415.337+38.9611+415.345+38.8883+415.155+38.8753C414.964+38.8643+414.903+38.7616+414.812+38.6566C414.699+38.5586+414.737+38.3588+414.687+38.0628C414.649+37.7738+414.257+37.6253+414.093+37.6253C413.927+37.6253+413.935+37.5551+413.812+37.4691C413.675+37.3831+412.988+37.4281+412.562+37.4691C412.138+37.5001+412.137+37.5153+412.218+37.2503C412.329+36.2953+412.203+35.8233+412.093+35.6253C411.974+35.4343+411.695+35.4066+411.468+35.5316C411.245+35.6416+410.675+36.3148+410.093+36.8128C409.624+37.1968+409.167+37.7896+408.749+38.2816C408.064+39.0596+407.179+39.4531+406.561+39.7191C405.76+40.1441+404.895+41.5899+404.624+41.9379C404.353+42.2819+404.312+42.3919+404.28+42.8129C404.23+43.2389+404.166+43.2259+403.968+43.6879C403.351+44.6089+403.146+46.7087+403.03+47.2817C402.917+47.8627+402.477+49.1997+402.249+49.6567C402.013+50.1117+401.006+52.3477+400.655+53.1567C400.31+54.1497+399.012+56.1995+398.53+57.0005C398.024+57.8105+396.349+60.755+395.968+61.563C395.584+62.372+394.845+64.4438+394.499+65.2818C393.772+66.6648+393.154+69.2791+392.999+69.9381C392.838+70.5951+391.861+73.4161+391.749+73.6881C391.628+73.9581+391.401+73.6744+389.593+72.0944C387.804+70.5144+384.281+69.5956+382.843+69.5006C381.399+69.4156+380.964+68.3733+377.905+67.7193C374.833+67.0523+372.36+67.2003+369.999+67.5943C367.634+67.9883+366.175+68.3526+365.749+68.5006C365.337+68.6616+365.45+68.0746+365.561+67.0006C365.673+65.9286+365.869+64.4541+366.092+63.188C366.339+61.925+366.501+60.7873+366.655+59.7193C366.852+57.7202+367.666+55.8315+368.092+54.8755C368.672+53.3684+369.394+50.3662+369.499+49.2192C369.603+48.0662+370.378+47.5367+370.717+47.1567C371.045+46.7747+372.207+46.2511+372.874+45.8441C373.54+45.4361+375.403+44.7031+376.249+44.3441C377.1+43.9871+376.797+41.9366+376.749+41.5316C376.699+41.1236+376.857+40.9761+376.936+40.4691C377.004+39.9581+376.865+38.9933+376.686+38.5003C376.483+37.9653+376.232+38.1461+375.436+38.2191C374.658+38.3051+374.403+38.1941+374.28+38.0941C374.156+37.9961+373.729+37.9743+373.686+37.8753C373.581+37.6653+373.686+37.6863+373.686+37.1253C373.686+36.5753+373.579+35.9721+373.467+35.7191C373.357+35.4721+373.236+35.281+372.811+35.3441ZM162.559+39.0316C161.628+38.7696+160.491+39.5511+159.591+39.7191C158.548+39.9101+157.565+40.1106+156.591+40.5316C155.64+40.9506+154.834+40.1986+153.934+40.5316C152.823+40.9376+153.493+41.5834+153.778+42.2504C154.11+43.0524+155.33+43.4811+155.341+44.3441C155.355+44.5611+154.934+45.0256+154.934+45.4066C154.915+45.9506+155.519+45.8471+155.341+46.4691C155.014+47.6422+157.055+49.3564+158.153+48.8754C157.795+49.0424+160.252+52.2997+160.591+52.6567C159.523+52.8297+161.247+54.487+161.653+54.938C161.839+55.136+162.37+55.8387+162.684+55.9067C163.652+56.1607+162.501+55.4315+162.841+55.0005C163.044+54.7485+166.626+60.1355+166.872+60.5005C167.413+61.3275+167.973+62.143+168.559+62.938C168.843+63.3281+169.17+63.7173+169.466+64.0943C169.75+64.4643+169.304+64.6526+169.403+64.8756C169.741+65.6756+170.597+66.4361+171.091+67.1881C171.659+68.0451+172.267+68.8693+172.841+69.7193C174.075+71.6024+175.683+73.0699+177.091+74.7819C179.632+77.8409+182.079+80.8982+184.153+84.1882C184.54+84.8032+184.373+85.6335+184.81+86.2195C185.224+86.7695+186.039+86.6432+186.435+87.0632C187.322+87.9582+188.144+89.7205+188.81+90.8445C189.631+92.2315+190.803+93.6906+191.278+95.2196C191.773+96.7866+193.044+97.6461+194.091+98.7821C196.417+101.28+198.558+104.011+200.872+106.532C202.186+107.982+201.822+110.122+202.747+111.813C202.822+111.77+202.911+111.802+202.997+111.907C202.836+111.45+202.411+110.927+202.622+110.47C202.572+110.2+202.604+109.873+202.716+109.532C202.766+109.765+202.804+109.942+202.841+110.188C202.853+110.033+202.916+109.892+202.903+109.72C203.005+109.902+203.006+110.107+203.06+110.313L203.06+110.345L203.06+110.501L203.091+110.501C203.11+110.621+203.194+110.73+203.185+110.845L203.341+111.001C203.303+110.772+203.273+110.513+203.31+110.313C203.612+110.633+203.564+111.35+203.466+111.845C203.456+111.896+203.51+111.956+203.497+112.001C204.656+115.678+203.361+120.171+201.56+123.501C201.079+124.389+200.341+125.062+199.935+126.001C199.485+126.987+199.04+127.919+198.497+128.876C198.041+129.698+195.525+132.724+196.216+133.689C196.667+134.33+197.417+133.355+196.997+134.501C196.652+135.451+196.285+136.53+195.778+137.407C194.786+139.133+194.101+140.973+193.122+142.689C192.837+143.188+192.884+143.458+193.06+143.657L237.935+143.657C237.915+143.603+237.895+143.556+237.873+143.501C237.052+141.464+236.61+139.238+235.716+137.189C234.859+135.209+234.665+133.074+234.154+131.001C233.988+130.322+233.182+128.774+233.404+128.126C233.749+127.152+234.053+126.17+234.341+125.157C234.97+122.924+235.937+121.206+237.06+119.157C237.466+118.437+238.198+117.792+238.654+117.064C239.246+116.14+239.494+115.02+240.154+114.157C241.407+112.528+243.449+111.773+244.623+110.063C245.88+108.225+246.934+106.328+248.279+104.532C248.933+103.661+249.486+102.72+250.029+101.782C250.559+100.87+251.457+100.585+252.185+99.8446C253.506+98.4986+253.656+96.4748+254.748+95.0008C255.296+94.2528+255.719+93.4293+256.404+92.8133C256.866+92.3933+256.523+92.0745+256.716+91.5945C256.913+91.1266+257.319+90.719+257.591+90.282C258.207+89.3+258.792+88.318+259.31+87.282C259.736+86.425+260.797+85.696+261.373+84.907C263.859+81.4339+267.851+78.6959+271.029+75.7819C272.279+74.6339+273.337+73.5914+274.435+72.3444C274.547+72.2094+277.063+70.6623+275.435+70.5944C276.033+69.8853+276.479+69.5071+276.529+68.4381C276.578+67.3891+277.562+66.5353+278.154+65.7193C279.426+63.9553+280.919+62.3508+282.092+60.5318C282.641+59.6727+282.708+58.8893+283.06+57.9692C283.214+57.5762+283.53+57.3055+283.654+56.8755C283.746+56.5465+283.624+56.091+283.748+55.813C283.933+55.43+284.522+55.1457+284.779+54.7817C285.095+54.3187+285.206+53.72+285.373+53.188C285.705+52.176+284.946+51.3167+284.279+50.6567C283.725+50.1137+282.185+49.7149+282.654+48.8129C282.963+48.2399+283.653+46.9034+283.56+46.2504C283.122+43.3074+280.533+47.3842+279.935+47.5942C279.342+47.8182+277.857+47.3342+277.154+47.3442C276.105+47.3702+275.109+47.7774+274.06+47.8754C271.631+48.1034+271.817+50.3742+272.498+52.2192C273.231+54.2362+273.979+56.529+274.029+58.688C274.04+59.479+273.973+60.559+273.435+61.188C273.188+61.485+272.706+62.1585+272.342+62.2505C271.81+62.3995+271.453+61.9068+270.935+61.9068C270.479+61.9068+270.267+62.0158+269.904+62.2818C269.569+62.5348+268.998+62.3775+268.592+62.5005C267.407+62.7725+266.565+63.0735+265.842+64.0005C264.898+65.2396+263.878+67.2263+262.748+68.5943C260.066+71.8654+257.181+74.9739+254.373+78.1569C251.659+81.2289+248.681+84.0442+246.373+87.4383C245.294+89.0043+244.354+90.9245+242.966+92.2195C242.28+92.8495+241.594+93.4178+241.341+94.3758C241.084+95.3128+240.817+95.7108+239.779+95.8758C239.31+95.8758+238.653+96.1306+238.091+96.0946C238.006+95.9286+237.613+95.5996+237.435+95.3446L237.498+95.2821C237.38+95.2821+237.292+95.2498+237.279+95.1258C237.243+95.1748+237.204+95.1628+237.154+95.1258C237.154+95.0718+237.199+95.0493+237.248+95.0633L237.279+94.8446C237.29+94.8936+237.343+94.9273+237.404+94.9383L237.404+94.8758C237.471+94.8508+237.522+94.8508+237.591+94.8758C237.528+94.7518+237.472+94.6453+237.373+94.5633C237.366+94.7193+237.314+94.6785+237.216+94.5946L237.373+94.5321C237.208+94.3211+237.033+94.1608+236.81+94.0008L236.841+93.9071C236.89+93.9511+236.949+93.9753+236.998+93.9383C236.949+93.8513+236.873+93.7503+236.779+93.6883C236.569+93.4723+236.428+93.2183+236.404+92.9383C236.372+93.0093+236.316+93.0075+236.279+92.9695C236.335+92.9366+236.387+92.8823+236.435+92.8133C236.152+92.4653+235.948+91.831+236.029+91.407L236.029+91.3758L236.029+91.3445C236.097+90.2665+235.098+88.567+234.591+87.532C234.067+86.458+233.662+85.369+233.279+84.282C233.39+84.215+233.372+84.1567+233.247+84.1257C233.198+83.9477+233.146+83.7927+233.06+83.6257L233.122+83.6257C233.023+83.3727+232.96+83.1482+232.872+82.9382C232.818+82.9832+232.771+82.9832+232.716+82.9382C232.653+82.7652+232.622+82.599+232.622+82.407C232.611+82.489+232.558+82.5137+232.466+82.5007L232.404+82.3132L232.497+82.282L232.435+82.1257C232.527+82.0687+232.53+81.9797+232.497+81.8757L232.56+81.907L232.529+81.782L232.497+81.8445C232.486+81.7284+232.44+81.6432+232.341+81.5632C232.328+81.7302+232.316+81.8969+232.341+82.032C232.217+81.883+232.161+81.6485+232.216+81.4694C232.229+81.5105+232.273+81.5319+232.341+81.5319C232.353+81.4089+232.334+81.2737+232.279+81.1257C232.265+81.1137+232.198+81.0427+232.185+81.0007L232.154+81.0632C231.97+79.6622+230.907+77.8829+230.154+76.6569C229.389+75.3609+228.839+74.0236+227.841+72.8756C225.637+70.3576+221.29+67.8788+217.904+68.0318C217.959+68.3408+216.322+68.3033+215.841+68.5943C215.915+68.6443+215.999+68.6443+216.06+68.5943C215.912+68.7183+215.645+68.9086+215.497+69.0006C215.429+69.0006+215.346+69.0393+215.279+69.0943C214.422+69.1313+213.493+69.8866+212.591+70.0006C211.473+70.1273+210.515+71.3828+209.435+71.4069L209.404+71.4069C208.863+71.4087+208.313+71.4484+207.841+71.7506C208.075+71.6646+208.55+71.6156+208.779+71.6256C208.531+71.7126+208.199+71.9093+207.935+71.9694C208.05+71.9464+208.151+71.9584+208.279+71.9694C207.416+72.5434+207.101+73.3941+206.31+73.9381C206.187+74.2961+205.912+74.7294+205.653+75.0944C205.733+75.0944+205.81+75.0889+205.872+75.0319C205.538+75.7479+205.17+76.4657+205.06+77.2507L204.997+77.2194C204.863+77.7264+204.777+78.1807+204.56+78.6257L204.622+78.5632C204.627+78.6103+204.588+78.6712+204.591+78.7194C204.648+79.8194+204.252+81.1904+204.122+82.3132C203.962+83.6702+203.948+85.0692+204.028+86.4382C204.14+88.3063+204.033+91.9671+205.403+93.4071C205.133+93.5431+203.671+93.0015+203.435+92.5945C203.238+92.2506+202.889+92.3908+202.685+92.1258C202.476+91.8418+202.377+91.2268+202.216+90.8758C201.944+90.3578+201.111+89.8938+200.685+89.3758C200.123+88.6928+199.284+88.3165+198.778+87.5945C198.16+86.7175+197.564+85.8575+196.966+84.9695C196.405+84.0995+196.516+82.8487+196.028+81.8757C195.621+81.0547+194.892+80.3432+194.153+79.8132C193.819+79.5672+193.375+79.5729+192.997+79.4069C192.541+79.2279+192.572+78.4399+192.122+78.1569C191.653+77.8659+191.187+76.8587+190.81+76.3757C190.317+75.7467+190.235+75.0919+189.716+74.5319C189.211+73.9879+189.034+73.1501+188.56+72.5631C187.852+71.6871+187.139+70.7656+186.435+69.8756C185.153+68.2226+183.906+66.6463+182.685+64.9693C181.278+63.0333+179.899+61.1058+178.528+59.1568C177.282+57.3937+175.626+60.5248+174.559+59.4068C172.844+57.5757+171.155+55.7232+169.341+53.9692C169.044+53.6862+168.326+53.2392+168.153+52.8442C168.054+52.5932+168.258+52.0844+168.122+51.7504C167.863+51.0594+166.892+50.4287+166.497+49.7817C166.288+49.4677+165.864+49.5272+165.716+49.2192C165.494+48.7872+165.309+48.3002+165.153+47.8442C164.772+46.6721+164.588+45.4341+164.341+44.2191C164.084+42.9181+164.239+39.4606+162.559+39.0316ZM204.591+78.7194L204.56+78.6569L204.56+78.7507L204.591+78.7194ZM232.56+81.907L232.591+82.1882L232.685+82.157L232.591+81.907L232.56+81.907ZM236.998+93.9383L236.998+94.0008L237.091+94.0008L236.998+93.9383ZM203.466+111.845C203.379+111.821+203.347+111.84+203.372+111.938L203.466+111.97L203.466+111.845ZM202.997+111.907C203.009+111.968+203.054+112.005+203.091+111.97L203.06+111.907L203.06+111.876L202.997+111.907ZM232.497+82.3132C232.485+82.3522+232.536+82.3757+232.591+82.3757L232.591+82.3132L232.497+82.3132ZM236.216+91.5633L236.247+91.6258L236.247+91.5633L236.216+91.5633ZM236.81+93.3133C236.774+93.4203+236.791+93.5458+236.873+93.6258L236.873+93.4696L236.81+93.3133ZM237.498+95.0008L237.498+95.0321L237.498+95.0008ZM201.653+108.97C201.587+109.124+201.587+109.309+201.653+109.47L201.685+109.407L201.653+108.97ZM202.903+110.595C202.772+110.628+202.815+110.728+202.903+110.813C202.929+110.753+202.928+110.666+202.903+110.595ZM203.06+110.751L203.028+110.782L203.06+110.813L203.06+110.751ZM203.153+111.313L203.153+111.345L203.153+111.313ZM202.81+111.876L202.778+111.938L202.841+111.938L202.81+111.876Z" opacity="1" fill="#343a40"/>
</g>
</svg>
